<svg xmlns="http://www.w3.org/2000/svg" width="18" height="20" viewBox="0 0 18 20"><g fill="none" fill-rule="evenodd"><path fill="#009dff" d="M17.5 13.082c.754 1.79.65 3.688-.278 5.078-.78 1.17-2.068 1.84-3.533 1.84H4.312c-1.466 0-2.754-.67-3.533-1.84-.929-1.39-1.033-3.289-.28-5.078 1.31-3.112 3.465-6.039 5.594-7.634L6.08 5.43l-.44-.695a51.11 51.11 0 0 0-.462-.728c-.783-1.22-1.35-2.102-.983-2.952.201-.465.631-.763 1.278-.886C5.59.147 6.476 0 6.98 0c.124 0 .225.008.318.026.324.061.595.187.834.299.084.04.168.078.252.112.155.062.363.108.615.138.252-.03.46-.076.615-.138.084-.034.168-.073.252-.112.24-.112.51-.238.835-.3A1.7 1.7 0 0 1 11.019 0c.504 0 1.391.147 1.508.169.646.123 1.076.42 1.277.886.367.85-.2 1.732-.984 2.952-.147.23-.304.474-.46.728l-.441.695-.012.018c2.129 1.595 4.284 4.522 5.594 7.634zm-9.14 3.68h.957V15.68c1.449-.146 2.086-1.003 2.086-2.084 0-1.333-1.06-1.446-2.086-1.7v-1.723c.444.108.931.314 1.286.636l.642-.93a3.228 3.228 0 0 0-1.925-.867l-.003-.9h-.923l-.035.88c-1.33.135-2.17.974-2.17 1.957 0 1.323 1.121 1.785 2.136 2.029v1.587c-.66-.116-1.356-.534-1.72-.914l-.632.996c.542.536 1.334.946 2.37 1.033l.016 1.082zm-.998-5.88c0-.419.397-.644.946-.718l.017 1.37c-.512-.16-.963-.294-.963-.652zm2.768 2.882c0 .386-.19.765-.813.886l-.013-1.704c.537.169.826.42.826.818z"></path></g></svg>