<svg xmlns="http://www.w3.org/2000/svg" xmlns:xlink="http://www.w3.org/1999/xlink" width="21" height="21" viewBox="0 0 21 21"><path fill="#009dff" fill-rule="evenodd" d="M20.5 5.2h-4.243V1.407A.707.707 0 0 0 15.55.7H1.407a.707.707 0 0 0-.707.707v16.264A2.829 2.829 0 0 0 3.529 20.5H17.67a2.829 2.829 0 0 0 2.829-2.829V5.2zm-3.021 13.501c-.721 0-1.222-.368-1.222-1.03V7H18.7v10.671c0 .662-.5 1.03-1.221 1.03zM9.25 3h4.8a.45.45 0 0 1 .45.45V6.6a.45.45 0 0 1-.45.45h-4.8a.45.45 0 0 1-.45-.45V3.45A.45.45 0 0 1 9.25 3zm-6.3 0h4.5a.45.45 0 0 1 .45.45v.45a.45.45 0 0 1-.45.45h-4.5a.45.45 0 0 1-.45-.45v-.45A.45.45 0 0 1 2.95 3zm0 2.7h4.5a.45.45 0 0 1 .45.45v.45a.45.45 0 0 1-.45.45h-4.5a.45.45 0 0 1-.45-.45v-.45a.45.45 0 0 1 .45-.45zm0 2.7h11.1a.45.45 0 0 1 .45.45v.45a.45.45 0 0 1-.45.45H2.95a.45.45 0 0 1-.45-.45v-.45a.45.45 0 0 1 .45-.45zm0 2.7h11.1a.45.45 0 0 1 .45.45V12a.45.45 0 0 1-.45.45H2.95A.45.45 0 0 1 2.5 12v-.45a.45.45 0 0 1 .45-.45zm0 2.7h11.1a.45.45 0 0 1 .45.45v.45a.45.45 0 0 1-.45.45H2.95a.45.45 0 0 1-.45-.45v-.45a.45.45 0 0 1 .45-.45zm0 2.7h11.1a.45.45 0 0 1 .45.45v.45a.45.45 0 0 1-.45.45H2.95a.45.45 0 0 1-.45-.45v-.45a.45.45 0 0 1 .45-.45z"></path></svg>