<svg xmlns="http://www.w3.org/2000/svg" xmlns:xlink="http://www.w3.org/1999/xlink" width="21" height="19" viewBox="0 0 21 21"><path fill="#009dff" fill-rule="evenodd" d="M19.15.5c.746 0 1.35.604 1.35 1.35v11.7a1.35 1.35 0 0 1-1.35 1.35H4.3L.7 18.5V1.85C.7 1.104 1.304.5 2.05.5h17.1zM9.6 9.45h1.575c.004-.16.016-.307.034-.44a1.577 1.577 0 0 1 .283-.71c.076-.107.171-.214.286-.32.201-.185.392-.367.572-.545.18-.178.34-.364.48-.557.14-.193.25-.398.332-.615.082-.217.123-.461.123-.732 0-.386-.062-.73-.187-1.03a2.001 2.001 0 0 0-.538-.757 2.379 2.379 0 0 0-.862-.465 3.865 3.865 0 0 0-1.156-.16c-.39 0-.754.05-1.092.15-.339.101-.633.254-.883.46a2.2 2.2 0 0 0-.597.777c-.148.314-.224.686-.228 1.117h1.784c.005-.184.035-.343.093-.477a.943.943 0 0 1 .227-.329.869.869 0 0 1 .323-.187c.121-.04.245-.059.373-.059.315 0 .554.086.716.258.162.173.243.433.243.782 0 .147-.023.286-.07.415-.048.13-.114.252-.2.37a2.942 2.942 0 0 1-.308.35 9.867 9.867 0 0 1-.388.36c-.176.16-.324.319-.443.477a2.22 2.22 0 0 0-.289.513 2.598 2.598 0 0 0-.157.606c-.03.22-.046.469-.046.748zm-.178 1.889c0 .13.023.254.07.369a.878.878 0 0 0 .514.495c.123.047.26.07.413.07.151 0 .289-.023.412-.07a.878.878 0 0 0 .514-.495.962.962 0 0 0 .07-.37.978.978 0 0 0-.07-.375.878.878 0 0 0-.514-.498 1.101 1.101 0 0 0-.412-.074c-.152 0-.29.025-.413.074a.878.878 0 0 0-.514.498.978.978 0 0 0-.07.376z"></path></svg>