<svg xmlns="http://www.w3.org/2000/svg" xmlns:xlink="http://www.w3.org/1999/xlink" width="21" height="21" viewBox="0 0 21 21"><path fill="#009dff" fill-rule="evenodd" d="M15.085 7.972a5.223 5.223 0 0 0-1.857-1.857l1.426-3.208c1.548.82 2.858 2.09 3.678 3.639l-3.247 1.426zm-.431 10.321l-1.426-3.208a5.223 5.223 0 0 0 1.857-1.857l3.247 1.426c-.82 1.548-2.13 2.82-3.678 3.639zM6.539 10.6A4.065 4.065 0 0 1 10.6 6.54a4.065 4.065 0 0 1 4.06 4.06 4.065 4.065 0 0 1-4.06 4.06 4.065 4.065 0 0 1-4.06-4.06zm.007 7.693a8.755 8.755 0 0 1-3.639-3.639l3.208-1.426a5.223 5.223 0 0 0 1.857 1.857l-1.426 3.208zm0-15.425l1.426 3.247a5.223 5.223 0 0 0-1.857 1.857L2.907 6.546c.82-1.548 2.09-2.858 3.639-3.678zM10.6.7C5.163.7.7 5.195.7 10.6c0 5.439 4.495 9.9 9.9 9.9 5.438 0 9.9-4.494 9.9-9.9 0-5.435-4.494-9.9-9.9-9.9z"></path></svg>