<svg xmlns="http://www.w3.org/2000/svg" xmlns:xlink="http://www.w3.org/1999/xlink" width="21" height="19" viewBox="0 0 21 21"><path fill="#009dff" fill-rule="evenodd" d="M19.15.5c.746 0 1.35.604 1.35 1.35v11.7a1.35 1.35 0 0 1-1.35 1.35H4.3L.7 18.5V1.85C.7 1.104 1.304.5 2.05.5h17.1zm-7.772 8.95l.21-6.208H9.692l.209 6.208h1.476zM9.65 11.363c0 .136.024.26.071.372a.886.886 0 0 0 .51.493c.122.047.258.07.41.07.152 0 .29-.023.412-.07a.886.886 0 0 0 .514-.492.955.955 0 0 0 .07-.373.978.978 0 0 0-.07-.375.878.878 0 0 0-.514-.495 1.144 1.144 0 0 0-.412-.071c-.152 0-.288.024-.41.07a.878.878 0 0 0-.51.495.978.978 0 0 0-.07.376z"></path></svg>