<svg width="22" height="24" viewBox="0 0 22 24" xmlns="http://www.w3.org/2000/svg"><g id="Budgets" fill="none" fill-rule="evenodd"><g id="Budgets---create" transform="translate(-560 -401)" fill="#12C48B"><g id="New-budget-dialog" transform="translate(420 110)"><g id="filters" transform="translate(140 291)"><path d="M18.3156383,5.50638899 C20.5763211,5.8726894 22,6.40611579 22,7 L22,9.28447676 C22,9.42204109 21.9433228,9.55352842 21.8433118,9.64798333 L13.1566882,17.8520167 C13.0566772,17.9464716 13,18.0779589 13,18.2155232 L13,21.690983 C13,21.880369 12.8929988,22.0535006 12.7236068,22.1381966 L9.7236068,23.6381966 C9.47661755,23.7616912 9.17628103,23.6615791 9.0527864,23.4145898 C9.01807255,23.3451621 9,23.2686056 9,23.190983 L9,18.2155232 C9,18.0779589 8.94332285,17.9464716 8.84331177,17.8520167 L0.156688234,9.64798333 C0.0566771509,9.55352842 -1.83911081e-14,9.42204109 -1.74305015e-14,9.28447676 L0,7 C0,6.00350764 4.00826495,5.17722992 9.25329997,5.02507497 C9.59539948,4.41347271 10.2494139,4 11,4 C11.7505861,4 12.4046005,4.41347271 12.7467,5.02507497 C13.6652512,5.05172153 14.545871,5.09904324 15.3736733,5.16433357 C15.1384691,4.83638624 15,4.43436372 15,4 C15,2.8954305 15.8954305,2 17,2 C18.1045695,2 19,2.8954305 19,4 C19,4.600827 18.7350617,5.13977436 18.3156383,5.50638899 Z M9.00022041,6.02999872 C4.43562995,6.16896705 1,6.77430095 1,7.5 C1,8.32842712 5.4771525,9 11,9 C16.5228475,9 21,8.32842712 21,7.5 C21,6.77430095 17.56437,6.16896705 12.9997796,6.02999872 C12.9837421,7.12073654 12.0945526,8 11,8 C9.90544745,8 9.01625788,7.12073654 9.00022041,6.02999872 Z M6,4 C4.8954305,4 4,3.1045695 4,2 C4,0.8954305 4.8954305,0 6,0 C7.1045695,0 8,0.8954305 8,2 C8,3.1045695 7.1045695,4 6,4 Z" id="Filter"></path></g></g></g></g></svg>