<svg width="22" height="24" viewBox="0 0 22 24" xmlns="http://www.w3.org/2000/svg" xmlns:xlink="http://www.w3.org/1999/xlink"><defs><path d="M21.0008858,15.6980755 C21.9053995,17.8455386 21.7793607,20.1236358 20.6659057,21.7918854 C19.7297138,23.1948679 18.1842221,24 16.4264191,24 L10.7998317,24 L5.17391843,24 C3.41544139,24 1.86994968,23.1948679 0.93443181,21.7918854 C-0.179697185,20.1236358 -0.305061972,17.8455386 0.598777703,15.6980755 C2.17122958,11.9643422 4.75670981,8.45188703 7.31118585,6.53703241 L7.29770576,6.51637091 L6.76928644,5.68257936 C6.57989125,5.37665584 6.39251808,5.08472882 6.21525497,4.8087978 C5.27501906,3.34383071 4.59494879,2.28542864 5.03574756,1.26568358 C5.27636707,0.707823044 5.79265431,0.349912522 6.56843318,0.202616013 C6.70795206,0.175956011 7.77153074,0 8.37746054,0 C8.52641548,0 8.64773624,0.00999750062 8.75827293,0.0306590019 C9.14717337,0.104640507 9.47271742,0.255936016 9.75916922,0.389902524 C9.86094385,0.437224027 9.96069648,0.48387903 10.0624711,0.524535533 C10.2478223,0.599183537 10.4972038,0.653836541 10.7998317,0.690494043 C11.1024596,0.653836541 11.3525152,0.599183537 11.5378664,0.524535533 C11.638967,0.48387903 11.7393936,0.437224027 11.8404943,0.389902524 C12.1276201,0.255936016 12.4524901,0.104640507 12.8420646,0.0306590019 C12.9526013,0.00999750062 13.073248,0 13.222203,0 C13.8281328,0 14.8923854,0.175956011 15.0319043,0.202616013 C15.8076832,0.349912522 16.3239704,0.707823044 16.5645899,1.26568358 C17.0047147,2.28542864 16.3253184,3.34383071 15.3844085,4.8087978 C15.2071454,5.08472882 15.0197722,5.37665584 14.8310511,5.68257936 L14.3026317,6.51637091 L14.2884777,6.53703241 C16.8429537,8.45188703 19.4291079,11.9643422 21.0008858,15.6980755 Z M10.0311057,20.1138162 L11.18043,20.1138162 L11.18043,18.8165189 C12.9188651,18.6407351 13.68333,17.6119784 13.68333,16.3153297 C13.68333,14.7157622 12.4105354,14.5795459 11.18043,14.2759784 L11.18043,12.2080865 C11.7130597,12.3371676 12.2975732,12.5849514 12.7238084,12.9702486 L13.4941841,11.8539243 C12.8551597,11.2701405 12.1419219,10.9198703 11.1837138,10.8147892 L11.18043,9.73543784 L10.0724814,9.73543784 L10.0311057,10.7894919 C8.43518676,10.9529514 7.42706514,11.9590054 7.42706514,13.1388973 C7.42706514,14.7267892 8.77210297,15.2813838 9.99038676,15.5732757 L9.99038676,17.4783568 C9.19833811,17.3388973 8.36294351,16.8368432 7.92554351,16.3814919 L7.16764622,17.5769514 C7.81783541,18.2191135 8.76881919,18.7114378 10.0107462,18.8165189 L10.0311057,20.1138162 Z M8.83383811,13.0584649 C8.83383811,12.5557622 9.31064351,12.2859243 9.96937054,12.1970595 L9.99038676,13.8407351 C9.37566243,13.6480865 8.83383811,13.4878703 8.83383811,13.0584649 Z M12.1563705,16.5170595 C12.1563705,16.9801946 11.9278192,17.4348973 11.18043,17.5801946 L11.1653246,15.5356541 C11.8089462,15.7380324 12.1563705,16.0403027 12.1563705,16.5170595 Z" id="budget-path-1"></path></defs><g id="Budgets" fill="none" fill-rule="evenodd"><g id="Budgets---create" transform="translate(-560 -210)"><g id="New-budget-dialog" transform="translate(420 110)"><g id="general-info" transform="translate(140 100)"><mask id="mask-2" fill="#fff"><use xlink:href="#budget-path-1"></use></mask><use id="Budget" fill="#12C48B" xlink:href="#budget-path-1"></use></g></g></g></g></svg>