<svg xmlns="http://www.w3.org/2000/svg" width="22" height="24" viewBox="0 0 22 24"><path fill="#12C48B" fill-rule="evenodd" d="M17 2h3.998A.997.997 0 0 1 22 3.002v19.996A.997.997 0 0 1 20.998 24H1.002A.997.997 0 0 1 0 22.998V3.002A.997.997 0 0 1 1.002 2H5V.491A.49.49 0 0 1 5.505 0h.99C6.774 0 7 .228 7 .491V2h8V.491A.49.49 0 0 1 15.505 0h.99c.279 0 .505.228.505.491V2zm0 2v1.509a.49.49 0 0 1-.505.491h-.99A.503.503 0 0 1 15 5.509V4H7v1.509A.49.49 0 0 1 6.495 6h-.99A.503.503 0 0 1 5 5.509V4H2.5c-.272 0-.5.223-.5.498v4.004c0 .283.224.498.5.498h17c.272 0 .5-.223.5-.498V4.498A.494.494 0 0 0 19.5 4H17zM7 11.505v.99c0 .291.222.505.495.505h2.01c.28 0 .495-.226.495-.505v-.99A.493.493 0 0 0 9.505 11h-2.01a.496.496 0 0 0-.495.505zm5 0v.99c0 .291.222.505.495.505h2.01c.28 0 .495-.226.495-.505v-.99a.493.493 0 0 0-.495-.505h-2.01a.496.496 0 0 0-.495.505zm5 0v.99c0 .291.222.505.495.505h2.01c.28 0 .495-.226.495-.505v-.99a.493.493 0 0 0-.495-.505h-2.01a.496.496 0 0 0-.495.505zm-15 4v.99c0 .291.222.505.495.505h2.01c.28 0 .495-.226.495-.505v-.99A.493.493 0 0 0 4.505 15h-2.01a.496.496 0 0 0-.495.505zm5 0v.99c0 .291.222.505.495.505h2.01c.28 0 .495-.226.495-.505v-.99A.493.493 0 0 0 9.505 15h-2.01a.496.496 0 0 0-.495.505zm5 0v.99c0 .291.222.505.495.505h2.01c.28 0 .495-.226.495-.505v-.99a.493.493 0 0 0-.495-.505h-2.01a.496.496 0 0 0-.495.505zm5 0v.99c0 .291.222.505.495.505h2.01c.28 0 .495-.226.495-.505v-.99a.493.493 0 0 0-.495-.505h-2.01a.496.496 0 0 0-.495.505zm-15 4v.99c0 .291.222.505.495.505h2.01c.28 0 .495-.226.495-.505v-.99A.493.493 0 0 0 4.505 19h-2.01a.496.496 0 0 0-.495.505zm5 0v.99c0 .291.222.505.495.505h2.01c.28 0 .495-.226.495-.505v-.99A.493.493 0 0 0 9.505 19h-2.01a.496.496 0 0 0-.495.505zm5 0v.99c0 .291.222.505.495.505h2.01c.28 0 .495-.226.495-.505v-.99a.493.493 0 0 0-.495-.505h-2.01a.496.496 0 0 0-.495.505z"></path></svg>